<svg width="28" height="28" viewBox="0 0 28 28" fill="none" xmlns="http://www.w3.org/2000/svg">
<g clip-path="url(#clip0_2080_986)">
<path fill-rule="evenodd" clip-rule="evenodd" d="M14 0C21.732 0 28 6.26801 28 14C28 21.732 21.732 28 14 28C6.26801 28 0 21.732 0 14C0 6.26801 6.26801 0 14 0ZM22.2195 20.477C22.4196 20.2759 22.5319 20.0038 22.5319 19.7201C22.5319 19.4365 22.4196 19.1644 22.2195 18.9633L19.4791 16.2235C19.2779 16.0233 19.0057 15.911 18.7219 15.911C18.4382 15.911 18.166 16.0233 17.9648 16.2235L17.2201 16.9685C16.9728 17.2179 16.6516 17.3807 16.3043 17.4327C15.957 17.4847 15.6021 17.4232 15.2926 17.2572C13.3547 16.2307 11.7697 14.6459 10.743 12.7081C10.577 12.3986 10.5154 12.0437 10.5673 11.6963C10.6192 11.3488 10.7819 11.0275 11.0312 10.78L11.7773 10.0352C11.9774 9.834 12.0897 9.56184 12.0897 9.27814C12.0897 8.99445 11.9774 8.72229 11.7773 8.52113L9.03689 5.78156C8.83573 5.58139 8.5635 5.46902 8.27971 5.46902C7.99593 5.46902 7.7237 5.58139 7.52254 5.78156C7.40928 5.89449 7.266 6.03094 7.11277 6.17531C6.72957 6.53751 6.25149 6.9883 6.05823 7.27169C5.04033 8.76132 5.52847 10.7542 6.11488 12.164C6.88953 14.0221 8.3172 16.0468 10.1364 17.8647C11.9539 19.6824 13.978 21.1103 15.8371 21.8849C17.2465 22.4721 19.2387 22.9591 20.7283 21.9414C21.0115 21.748 21.4629 21.271 21.8244 20.8873C21.9694 20.7344 22.1059 20.5898 22.2195 20.477Z" fill="#005795"/>
</g>
<defs>
<clipPath id="clip0_2080_986">
<rect width="28" height="28" fill="white"/>
</clipPath>
</defs>
</svg>
