<svg width="28" height="28" viewBox="0 0 28 28" fill="none" xmlns="http://www.w3.org/2000/svg">
<g clip-path="url(#clip0_1839_989)">
<path d="M14 0C6.2692 0 0 6.2692 0 14C0 21.7308 6.2692 28 14 28C21.7308 28 28 21.7308 28 14C28 6.2692 21.7308 0 14 0ZM14.2967 22.1512C14.2965 22.1512 14.2969 22.1512 14.2967 22.1512H14.2933C12.8909 22.1506 11.5128 21.799 10.2889 21.1316L5.84708 22.2965L7.03589 17.9557C6.30252 16.6855 5.91672 15.2444 5.91736 13.768C5.91928 9.14948 9.67819 5.39206 14.2967 5.39206C16.5381 5.39291 18.642 6.26535 20.2239 7.84851C21.806 9.43188 22.6767 11.5365 22.6759 13.7746C22.674 18.3934 18.9146 22.1512 14.2967 22.1512Z" fill="#159354"/>
<path d="M14.2957 6.80664C10.4541 6.80664 7.32983 9.9296 7.32813 13.7684C7.3277 15.0839 7.69598 16.365 8.39304 17.4735L8.55859 17.7369L7.85492 20.3061L10.4908 19.6148L10.7452 19.7657C11.8144 20.4001 13.0402 20.7357 14.2899 20.7361H14.2927C18.1313 20.7361 21.2555 17.613 21.2572 13.774C21.2578 11.9135 20.5341 10.1644 19.2192 8.84845C17.9044 7.53253 16.1557 6.80728 14.2957 6.80664ZM18.3921 16.7617C18.2176 17.2505 17.3812 17.6967 16.979 17.757C16.6182 17.8108 16.1619 17.8332 15.6603 17.6741C15.3561 17.5775 14.9662 17.4487 14.4666 17.2332C12.3664 16.3265 10.9948 14.2125 10.8901 14.0728C10.7854 13.9331 10.0352 12.9378 10.0352 11.9075C10.0352 10.8774 10.5761 10.3709 10.7679 10.1616C10.9599 9.95203 11.1868 9.89969 11.3263 9.89969C11.4658 9.89969 11.6055 9.90097 11.7275 9.90695C11.8561 9.91336 12.0287 9.85803 12.1985 10.2663C12.373 10.6854 12.7917 11.7155 12.8441 11.8202C12.8964 11.925 12.9312 12.0472 12.8616 12.187C12.7917 12.3267 12.5598 12.6281 12.3382 12.9028C12.2453 13.0179 12.1242 13.1205 12.2464 13.33C12.3683 13.5394 12.7888 14.2249 13.411 14.7799C14.2108 15.493 14.8855 15.7139 15.0948 15.8188C15.304 15.9234 15.4261 15.9059 15.5483 15.7664C15.6703 15.6267 16.0717 15.1552 16.2112 14.9457C16.3507 14.7361 16.4904 14.7711 16.6823 14.841C16.8743 14.9106 17.9035 15.4171 18.1129 15.5218C18.3222 15.6267 18.4617 15.679 18.5141 15.7664C18.5666 15.8538 18.5666 16.2727 18.3921 16.7617Z" fill="#159354"/>
</g>
<defs>
<clipPath id="clip0_1839_989">
<rect width="28" height="28" fill="white"/>
</clipPath>
</defs>
</svg>
